<mxfile host="app.diagrams.net" modified="2023-12-15T01:46:53.260Z" agent="Mozilla/5.0 (Windows NT 10.0; Win64; x64) AppleWebKit/537.36 (KHTML, like Gecko) Chrome/120.0.0.0 Safari/537.36" etag="mWclBpsOZl8XvzQi-EaI" version="22.1.9" type="google">
  <diagram name="Page-1" id="2YBvvXClWsGukQMizWep">
    <mxGraphModel grid="0" page="1" gridSize="10" guides="1" tooltips="1" connect="1" arrows="1" fold="1" pageScale="1" pageWidth="850" pageHeight="1100" math="0" shadow="0">
      <root>
        <mxCell id="0" />
        <mxCell id="1" parent="0" />
        <mxCell id="aM9ryv3xv72pqoxQDRHE-1" value="&lt;b&gt;User&lt;/b&gt;" style="shape=umlLifeline;perimeter=lifelinePerimeter;whiteSpace=wrap;html=1;container=0;dropTarget=0;collapsible=0;recursiveResize=0;outlineConnect=0;portConstraint=eastwest;newEdgeStyle={&quot;edgeStyle&quot;:&quot;elbowEdgeStyle&quot;,&quot;elbow&quot;:&quot;vertical&quot;,&quot;curved&quot;:0,&quot;rounded&quot;:0};" vertex="1" parent="1">
          <mxGeometry x="195" y="349" width="100" height="400" as="geometry" />
        </mxCell>
        <mxCell id="aM9ryv3xv72pqoxQDRHE-5" value="Raspberry Pi 3 B+" style="shape=umlLifeline;perimeter=lifelinePerimeter;whiteSpace=wrap;html=1;container=0;dropTarget=0;collapsible=0;recursiveResize=0;outlineConnect=0;portConstraint=eastwest;newEdgeStyle={&quot;edgeStyle&quot;:&quot;elbowEdgeStyle&quot;,&quot;elbow&quot;:&quot;vertical&quot;,&quot;curved&quot;:0,&quot;rounded&quot;:0};fontStyle=1" vertex="1" parent="1">
          <mxGeometry x="375" y="349" width="100" height="400" as="geometry" />
        </mxCell>
        <mxCell id="aM9ryv3xv72pqoxQDRHE-9" value="3:Boot Program" style="html=1;verticalAlign=bottom;endArrow=block;edgeStyle=elbowEdgeStyle;elbow=vertical;curved=0;rounded=0;startArrow=none;" edge="1" parent="1" source="ikDXCQzh1jN6E5IzMO-d-29" target="aM9ryv3xv72pqoxQDRHE-5">
          <mxGeometry relative="1" as="geometry">
            <mxPoint x="245" y="489" as="sourcePoint" />
            <Array as="points">
              <mxPoint x="320" y="489" />
            </Array>
            <mxPoint x="410" y="489" as="targetPoint" />
          </mxGeometry>
        </mxCell>
        <mxCell id="aM9ryv3xv72pqoxQDRHE-10" value="2:Boot" style="html=1;verticalAlign=bottom;endArrow=open;dashed=1;endSize=8;edgeStyle=elbowEdgeStyle;elbow=vertical;curved=0;rounded=0;" edge="1" parent="1">
          <mxGeometry relative="1" as="geometry">
            <mxPoint x="245" y="459" as="targetPoint" />
            <Array as="points">
              <mxPoint x="340" y="459" />
            </Array>
            <mxPoint x="425" y="459" as="sourcePoint" />
          </mxGeometry>
        </mxCell>
        <mxCell id="ikDXCQzh1jN6E5IzMO-d-1" value="GPS Module" style="rounded=0;whiteSpace=wrap;html=1;fontStyle=1" vertex="1" parent="1">
          <mxGeometry x="555" y="349" width="100" height="40" as="geometry" />
        </mxCell>
        <mxCell id="ikDXCQzh1jN6E5IzMO-d-2" value="" style="endArrow=none;dashed=1;html=1;rounded=0;entryX=0.5;entryY=1;entryDx=0;entryDy=0;" edge="1" parent="1" source="gpF_qei_ut7LWiLBiPSx-15" target="ikDXCQzh1jN6E5IzMO-d-1">
          <mxGeometry width="50" height="50" relative="1" as="geometry">
            <mxPoint x="605" y="749" as="sourcePoint" />
            <mxPoint x="605" y="589" as="targetPoint" />
          </mxGeometry>
        </mxCell>
        <mxCell id="ikDXCQzh1jN6E5IzMO-d-9" value="8:Power Off" style="html=1;verticalAlign=bottom;endArrow=open;dashed=1;endSize=8;edgeStyle=elbowEdgeStyle;elbow=vertical;curved=0;rounded=0;" edge="1" parent="1">
          <mxGeometry relative="1" as="geometry">
            <mxPoint x="245" y="749" as="targetPoint" />
            <Array as="points">
              <mxPoint x="350" y="749" />
            </Array>
            <mxPoint x="425" y="749" as="sourcePoint" />
          </mxGeometry>
        </mxCell>
        <mxCell id="ikDXCQzh1jN6E5IzMO-d-17" value="7:Turn Off Device" style="html=1;verticalAlign=bottom;endArrow=block;edgeStyle=elbowEdgeStyle;elbow=vertical;curved=0;rounded=0;startArrow=none;" edge="1" parent="1" source="ikDXCQzh1jN6E5IzMO-d-34" target="aM9ryv3xv72pqoxQDRHE-5">
          <mxGeometry relative="1" as="geometry">
            <mxPoint x="245" y="639" as="sourcePoint" />
            <Array as="points">
              <mxPoint x="320" y="639" />
            </Array>
            <mxPoint x="410" y="639" as="targetPoint" />
          </mxGeometry>
        </mxCell>
        <mxCell id="ikDXCQzh1jN6E5IzMO-d-22" value="" style="rounded=0;whiteSpace=wrap;html=1;direction=south;" vertex="1" parent="1">
          <mxGeometry x="420" y="429" width="10" height="30" as="geometry" />
        </mxCell>
        <mxCell id="ikDXCQzh1jN6E5IzMO-d-31" value="" style="html=1;verticalAlign=bottom;endArrow=none;edgeStyle=elbowEdgeStyle;elbow=vertical;curved=0;rounded=0;" edge="1" parent="1" target="ikDXCQzh1jN6E5IzMO-d-29">
          <mxGeometry relative="1" as="geometry">
            <mxPoint x="245" y="489" as="sourcePoint" />
            <Array as="points" />
            <mxPoint x="425" y="489" as="targetPoint" />
          </mxGeometry>
        </mxCell>
        <mxCell id="ikDXCQzh1jN6E5IzMO-d-29" value="" style="rounded=0;whiteSpace=wrap;html=1;direction=south;" vertex="1" parent="1">
          <mxGeometry x="420" y="489" width="10" height="30" as="geometry" />
        </mxCell>
        <mxCell id="ikDXCQzh1jN6E5IzMO-d-28" value="" style="rounded=0;whiteSpace=wrap;html=1;direction=south;" vertex="1" parent="1">
          <mxGeometry x="420" y="549" width="10" height="70" as="geometry" />
        </mxCell>
        <mxCell id="ikDXCQzh1jN6E5IzMO-d-35" value="" style="html=1;verticalAlign=bottom;endArrow=none;edgeStyle=elbowEdgeStyle;elbow=vertical;curved=0;rounded=0;" edge="1" parent="1" target="ikDXCQzh1jN6E5IzMO-d-34">
          <mxGeometry relative="1" as="geometry">
            <mxPoint x="245" y="639" as="sourcePoint" />
            <Array as="points" />
            <mxPoint x="425" y="639" as="targetPoint" />
          </mxGeometry>
        </mxCell>
        <mxCell id="ikDXCQzh1jN6E5IzMO-d-34" value="" style="rounded=0;whiteSpace=wrap;html=1;direction=south;" vertex="1" parent="1">
          <mxGeometry x="420" y="639" width="10" height="110" as="geometry" />
        </mxCell>
        <mxCell id="ikDXCQzh1jN6E5IzMO-d-44" value="" style="rounded=0;whiteSpace=wrap;html=1;" vertex="1" parent="1">
          <mxGeometry x="670" y="300" width="180" height="100" as="geometry" />
        </mxCell>
        <mxCell id="ikDXCQzh1jN6E5IzMO-d-36" value="&lt;h1&gt;Sequence Diagram&lt;/h1&gt;" style="text;html=1;strokeColor=none;fillColor=none;spacing=5;spacingTop=-20;whiteSpace=wrap;overflow=hidden;rounded=0;" vertex="1" parent="1">
          <mxGeometry x="310" y="300" width="230" height="41" as="geometry" />
        </mxCell>
        <mxCell id="ikDXCQzh1jN6E5IzMO-d-37" value="Legend:" style="text;html=1;strokeColor=none;fillColor=none;align=center;verticalAlign=middle;whiteSpace=wrap;rounded=0;fontStyle=1" vertex="1" parent="1">
          <mxGeometry x="750" y="300" width="60" height="30" as="geometry" />
        </mxCell>
        <mxCell id="ikDXCQzh1jN6E5IzMO-d-38" value="" style="endArrow=classic;html=1;rounded=0;" edge="1" parent="1">
          <mxGeometry width="50" height="50" relative="1" as="geometry">
            <mxPoint x="681" y="346" as="sourcePoint" />
            <mxPoint x="761" y="346" as="targetPoint" />
          </mxGeometry>
        </mxCell>
        <mxCell id="ikDXCQzh1jN6E5IzMO-d-40" value="" style="endArrow=none;dashed=1;html=1;rounded=0;" edge="1" parent="1">
          <mxGeometry width="50" height="50" relative="1" as="geometry">
            <mxPoint x="681" y="385" as="sourcePoint" />
            <mxPoint x="761" y="385" as="targetPoint" />
            <Array as="points" />
          </mxGeometry>
        </mxCell>
        <mxCell id="ikDXCQzh1jN6E5IzMO-d-42" value="Output" style="text;html=1;align=center;verticalAlign=middle;resizable=0;points=[];autosize=1;strokeColor=none;fillColor=none;" vertex="1" parent="1">
          <mxGeometry x="761" y="330" width="60" height="30" as="geometry" />
        </mxCell>
        <mxCell id="ikDXCQzh1jN6E5IzMO-d-43" value="Input" style="text;html=1;align=center;verticalAlign=middle;resizable=0;points=[];autosize=1;strokeColor=none;fillColor=none;" vertex="1" parent="1">
          <mxGeometry x="766" y="370" width="50" height="30" as="geometry" />
        </mxCell>
        <mxCell id="gpF_qei_ut7LWiLBiPSx-16" value="" style="endArrow=none;dashed=1;html=1;rounded=0;entryX=1;entryY=0.5;entryDx=0;entryDy=0;" edge="1" parent="1" source="gpF_qei_ut7LWiLBiPSx-24" target="gpF_qei_ut7LWiLBiPSx-15">
          <mxGeometry width="50" height="50" relative="1" as="geometry">
            <mxPoint x="605" y="749" as="sourcePoint" />
            <mxPoint x="605" y="389" as="targetPoint" />
          </mxGeometry>
        </mxCell>
        <mxCell id="gpF_qei_ut7LWiLBiPSx-15" value="" style="rounded=0;whiteSpace=wrap;html=1;direction=south;" vertex="1" parent="1">
          <mxGeometry x="600" y="429" width="10" height="30" as="geometry" />
        </mxCell>
        <mxCell id="gpF_qei_ut7LWiLBiPSx-25" value="" style="endArrow=none;dashed=1;html=1;rounded=0;entryX=1;entryY=0.5;entryDx=0;entryDy=0;" edge="1" parent="1" source="gpF_qei_ut7LWiLBiPSx-50" target="gpF_qei_ut7LWiLBiPSx-24">
          <mxGeometry width="50" height="50" relative="1" as="geometry">
            <mxPoint x="605" y="749" as="sourcePoint" />
            <mxPoint x="605" y="459" as="targetPoint" />
          </mxGeometry>
        </mxCell>
        <mxCell id="gpF_qei_ut7LWiLBiPSx-24" value="" style="rounded=0;whiteSpace=wrap;html=1;direction=south;" vertex="1" parent="1">
          <mxGeometry x="600" y="489" width="10" height="30" as="geometry" />
        </mxCell>
        <mxCell id="gpF_qei_ut7LWiLBiPSx-26" value="2:Receive GPS Data" style="html=1;verticalAlign=bottom;endArrow=open;dashed=1;endSize=8;edgeStyle=elbowEdgeStyle;rounded=0;" edge="1" parent="1">
          <mxGeometry x="-0.5229" relative="1" as="geometry">
            <mxPoint x="610" y="490" as="targetPoint" />
            <Array as="points">
              <mxPoint x="720" y="470" />
            </Array>
            <mxPoint x="610" y="458.46" as="sourcePoint" />
            <mxPoint as="offset" />
          </mxGeometry>
        </mxCell>
        <mxCell id="gpF_qei_ut7LWiLBiPSx-31" value="4:Scan Road" style="html=1;verticalAlign=bottom;endArrow=open;dashed=1;endSize=8;edgeStyle=elbowEdgeStyle;rounded=0;entryX=0;entryY=0;entryDx=0;entryDy=0;" edge="1" parent="1" target="ikDXCQzh1jN6E5IzMO-d-28">
          <mxGeometry x="-0.43" relative="1" as="geometry">
            <mxPoint x="610" y="518.46" as="targetPoint" />
            <Array as="points">
              <mxPoint x="520" y="530" />
            </Array>
            <mxPoint x="430" y="518.46" as="sourcePoint" />
            <mxPoint as="offset" />
          </mxGeometry>
        </mxCell>
        <mxCell id="gpF_qei_ut7LWiLBiPSx-40" value="" style="endArrow=block;endFill=1;html=1;edgeStyle=orthogonalEdgeStyle;align=left;verticalAlign=top;rounded=0;entryX=0;entryY=1;entryDx=0;entryDy=0;" edge="1" parent="1" source="aM9ryv3xv72pqoxQDRHE-1" target="ikDXCQzh1jN6E5IzMO-d-22">
          <mxGeometry x="-1" y="65" relative="1" as="geometry">
            <mxPoint x="250" y="428.46" as="sourcePoint" />
            <mxPoint x="410" y="428.46" as="targetPoint" />
            <Array as="points">
              <mxPoint x="358" y="429" />
              <mxPoint x="420" y="430" />
            </Array>
            <mxPoint x="-65" y="65" as="offset" />
          </mxGeometry>
        </mxCell>
        <mxCell id="gpF_qei_ut7LWiLBiPSx-41" value="1: Turn on Device" style="edgeLabel;resizable=0;html=1;align=left;verticalAlign=bottom;" connectable="0" vertex="1" parent="gpF_qei_ut7LWiLBiPSx-40">
          <mxGeometry x="-1" relative="1" as="geometry">
            <mxPoint x="50" as="offset" />
          </mxGeometry>
        </mxCell>
        <mxCell id="gpF_qei_ut7LWiLBiPSx-42" value="" style="endArrow=block;endFill=1;html=1;edgeStyle=orthogonalEdgeStyle;align=left;verticalAlign=top;rounded=0;entryX=0;entryY=1;entryDx=0;entryDy=0;" edge="1" parent="1">
          <mxGeometry x="-1" y="65" relative="1" as="geometry">
            <mxPoint x="425" y="429" as="sourcePoint" />
            <mxPoint x="600" y="429" as="targetPoint" />
            <Array as="points">
              <mxPoint x="538" y="429" />
              <mxPoint x="600" y="430" />
            </Array>
            <mxPoint x="-65" y="65" as="offset" />
          </mxGeometry>
        </mxCell>
        <mxCell id="gpF_qei_ut7LWiLBiPSx-43" value="1:Turn on GPS" style="edgeLabel;resizable=0;html=1;align=left;verticalAlign=bottom;" connectable="0" vertex="1" parent="gpF_qei_ut7LWiLBiPSx-42">
          <mxGeometry x="-1" relative="1" as="geometry">
            <mxPoint x="50" as="offset" />
          </mxGeometry>
        </mxCell>
        <mxCell id="gpF_qei_ut7LWiLBiPSx-47" value="" style="endArrow=block;endFill=1;html=1;edgeStyle=elbowEdgeStyle;align=left;verticalAlign=top;rounded=0;entryX=0;entryY=1;entryDx=0;entryDy=0;" edge="1" parent="1">
          <mxGeometry x="-1" y="65" relative="1" as="geometry">
            <mxPoint x="430" y="570" as="sourcePoint" />
            <mxPoint x="605" y="570" as="targetPoint" />
            <mxPoint x="-65" y="65" as="offset" />
          </mxGeometry>
        </mxCell>
        <mxCell id="gpF_qei_ut7LWiLBiPSx-48" value="5:Signal to GPS" style="edgeLabel;resizable=0;html=1;align=left;verticalAlign=bottom;" connectable="0" vertex="1" parent="gpF_qei_ut7LWiLBiPSx-47">
          <mxGeometry x="-1" relative="1" as="geometry">
            <mxPoint x="45" as="offset" />
          </mxGeometry>
        </mxCell>
        <mxCell id="gpF_qei_ut7LWiLBiPSx-49" value="6:Log GPS Data of Pothole" style="html=1;verticalAlign=bottom;endArrow=open;dashed=1;endSize=8;edgeStyle=elbowEdgeStyle;rounded=0;entryX=0.568;entryY=-0.157;entryDx=0;entryDy=0;entryPerimeter=0;elbow=vertical;" edge="1" parent="1">
          <mxGeometry relative="1" as="geometry">
            <mxPoint x="426.5700000000002" y="588.76" as="targetPoint" />
            <mxPoint x="600.0000000000001" y="590" as="sourcePoint" />
          </mxGeometry>
        </mxCell>
        <mxCell id="gpF_qei_ut7LWiLBiPSx-50" value="" style="rounded=0;whiteSpace=wrap;html=1;direction=south;" vertex="1" parent="1">
          <mxGeometry x="600" y="569" width="10" height="21" as="geometry" />
        </mxCell>
      </root>
    </mxGraphModel>
  </diagram>
</mxfile>
